<svg xmlns="http://www.w3.org/2000/svg" xmlns:xlink="http://www.w3.org/1999/xlink" version="1.1" x="0px" y="0px" viewBox="0 0 110 110" xml:space="preserve"><path d="m 17.444873,68.902224 -12.2699998,12.27 a 4.0022244,4.0022244 0 0 0 5.6599998,5.66 l 28.68,-28.69 v 0 l 22.63,-22.62 v 0 l 28.69,-28.6899996 a 4.0022244,4.0022244 0 1 0 -5.66,-5.66 l -13.25,13.2499996 a 46.53,46.53 0 0 0 -23.92,-6.4199996 c -34.38,0 -47.20999983,33.1799996 -47.74999983,34.5999996 a 4,4 0 0 0 0,2.81 62.21,62.21 0 0 0 17.18999983,23.49 z m 22.07,-33.39 a 12,12 0 0 1 13.63,-2.3 l -15.93,15.93 a 12,12 0 0 1 2.3,-13.63 z m 8.49,-19.51 a 38.76,38.76 0 0 1 18,4.35 l -7,7 a 20,20 0 0 0 -27.68,27.65 l -8.17,8.2 a 55.48,55.48 0 0 1 -14.7999998,-19.2 c 2.6499998,-5.87 14.4599998,-28 39.6499998,-28 z" /><path d="m 86.004873,26.542224 a 4.001153,4.001153 0 0 0 -6.15,5.12 57.71,57.71 0 0 1 7.8,12.34 c -2.65,5.88 -14.46,28 -39.65,28 a 40.62,40.62 0 0 1 -9.73,-1.18 4,4 0 1 0 -1.93,7.76 48.46,48.46 0 0 0 11.66,1.42 c 34.38,0 47.21,-33.18 47.75,-34.6 a 4,4 0 0 0 0,-2.82 62.5,62.5 0 0 0 -9.75,-16.04 z" /></svg>
