<svg xmlns="http://www.w3.org/2000/svg" xmlns:xlink="http://www.w3.org/1999/xlink" version="1.1" x="0px" y="0px" viewBox="0 0 20 20" xml:space="preserve"><path d="M 7.8343,1.1095635 C 7.6468,0.95950349 7.379,0.96404349 7.1966,1.1203735 l -6.022,5.16171 C 1.06378,6.3770835 1,6.5157835 1,6.6616835 v 7.5400995 c 0,0.2761 0.22386,0.5 0.5,0.5 H 14 c 0.2761,0 0.5,-0.2239 0.5,-0.5 V 6.6823835 c 0,-0.1519 -0.069,-0.2955 -0.1877,-0.3904 z M 6.5458,0.36111349 c 0.5472,-0.46899 1.3505,-0.4826 1.9132,-0.03241 l 6.478,5.18240001 c 0.3559,0.28466 0.563,0.71558 0.563,1.17128 v 7.5193995 c 0,0.8284 -0.6716,1.5 -1.5,1.5 H 1.5 c -0.82843,0 -1.5,-0.6716 -1.5,-1.5 V 6.6616835 c 0,-0.4379 0.19134,-0.85388 0.52381,-1.13886 z" /></svg>
